<!-- icon666.com - MILLIONS vector ICONS FREE --><svg id="Layer_1" viewBox="0 0 512 512" xmlns="http://www.w3.org/2000/svg" xmlns:xlink="http://www.w3.org/1999/xlink" data-name="Layer 1"><linearGradient id="linear-gradient" gradientUnits="userSpaceOnUse" x1="256" x2="256" y1="467" y2="158.837"><stop offset=".322" stop-color="#a163f5"></stop><stop offset=".466" stop-color="#b074ee"></stop><stop offset=".752" stop-color="#d8a1dd"></stop><stop offset=".898" stop-color="#efbad3"></stop></linearGradient><path d="m431.9 171.1c-27.193-19.048-50.84-20.828-65.888-18.963a72.106 72.106 0 0 0 -17.773 4.533c-12.231-70.62-68.097-101.445-85.36-109.37a13.787 13.787 0 0 0 -12.938.739c-40.98 24.943-58.91 56.563-66.736 78.7a127.693 127.693 0 0 0 -7.029 32.581 70.059 70.059 0 0 0 -28.943-10.569c-15.043-2.007-38.725-.44-66.139 18.408-25.546 17.563-48.668 46.2-68.725 85.129a12.294 12.294 0 0 0 -.965 8.773c3.855 14.647 24.883 87.755 65.43 110.208a132.035 132.035 0 0 0 -7.639 31.063c-2.959 26.406 4.722 46.771 22.213 58.892 4.587 3.179 10.394 4.768 17.379 4.768 7.493 0 16.342-1.83 26.485-5.489 28.832-10.4 62.756-34.349 73.516-50.79a54.408 54.408 0 0 0 23.153 8.057 30.748 30.748 0 0 0 3.888.252c6.088 0 11.409-1.931 15.253-5.6.321-.306.628-.626.926-.953a161.927 161.927 0 0 0 35.526 32.387c16.579 11.033 40.332 21.86 69.71 21.859a129.291 129.291 0 0 0 41.614-7.1 38.274 38.274 0 0 0 19.957-15.562c16.418-25.709 17.169-58.528 16.956-68.861 39.663-23.239 60.85-94.367 64.794-108.784a12.29 12.29 0 0 0 -.88-8.784c-19.649-38.998-42.456-67.775-67.785-85.524zm-176.76-114.517a3.85 3.85 0 0 1 3.566-.192c16.35 7.5 69.778 37 80.144 104.864-13.905 8.183-23.978 20.937-27.33 35.9-8.986 40.114-34.654 62.78-41.649 68.327a43.894 43.894 0 0 0 -6.749-1.1c20.051-46.683 15.382-99.3 15.162-101.63a5 5 0 0 0 -9.956.938c.053.562 4.919 55.789-16.336 101.066-.327.048-.655.1-.983.155 4.073-61.3-19.158-117.442-20.186-119.887a5 5 0 0 0 -9.223 3.876c.24.573 23 55.654 19.5 114.209-10.357-9.629-32.429-33.617-39.992-68.975a53.7 53.7 0 0 0 -15.208-27.046c-.089-11.324 2.8-70.068 69.24-110.505zm-234.065 201.932a2.312 2.312 0 0 1 .183-1.648c19.293-37.441 41.33-64.851 65.5-81.469 24.794-17.046 45.854-18.508 59.153-16.736 23.017 3.068 41.269 18.164 45.418 37.562a136 136 0 0 0 14.631 38.344c-39.138-24.828-71.628-29.731-73.26-29.968a5 5 0 0 0 -1.418 9.9c.116.017 11.648 1.734 28.849 8.239a230.433 230.433 0 0 1 63.94 37.272 141.222 141.222 0 0 0 10.33 10.578 24.671 24.671 0 0 0 -2.608 2c-35.688-20.807-71.8-23.313-96.151-21.651-27.209 1.857-45.59 9.016-46.359 9.32a5 5 0 0 0 3.674 9.3c.66-.263 63.061-24.215 125.635 7.25a233.5 233.5 0 0 0 -40.738-1.187c-38.956 2.367-69.909 15.305-89.511 37.413a5 5 0 0 0 7.482 6.635c27.188-30.664 72.4-35.182 102.478-34.261-18.209 4.21-24.255 17.051-30.926 31.265-7.707 16.422-16.443 35.035-47.934 47.733-12.716 5.128-24.5 4.811-36.017-.97-38.088-19.103-58.626-90.752-62.351-104.921zm208.56 90.462c-5.089-.558-12.708-.421-23.695 1.868a15.23 15.23 0 0 1 -12.783-3.109 14.755 14.755 0 0 1 -5.471-11.513c.026-9.494 2.243-17.532 6.588-23.89 3.212-4.7 6.909-7.024 11.3-7.109h.268c11.021 0 24.663 13.064 32.258 21.878-5.393 4.216-8.76 12.398-8.465 21.875zm-28.543 54.3c-6.706 11.866-38.276 36.661-69.212 47.818-15.917 5.741-28.268 6.419-34.776 1.908-29.253-20.272-16.252-63.727-11.091-77.677a49.7 49.7 0 0 0 16.031 2.687 56.3 56.3 0 0 0 21.135-4.325c35.135-14.167 45.177-35.565 53.247-52.759 8.731-18.6 14.151-30.112 47.1-26.286a25.207 25.207 0 0 0 2.312 7.769c-7.306-4.894-14.153-7.311-20.445-7.186-5.332.1-13.02 2.17-19.373 11.464-5.5 8.043-8.3 17.97-8.333 29.5a24.711 24.711 0 0 0 9.152 19.291 25.151 25.151 0 0 0 15.933 5.688 25.544 25.544 0 0 0 5.208-.539 96.257 96.257 0 0 1 10.282-1.611c-9.974 6.192-21.333 15.508-23.155 26.6-.733 4.463-.155 10.938 5.985 17.658zm46.213-8.63c.363 4.6-.717 8.247-3.122 10.54-2.458 2.342-6.258 3.262-10.979 2.662-9.419-1.2-17.113-4.39-22.869-9.484-6.273-5.55-5.587-9.74-5.361-11.117 1.6-9.787 17.944-19.873 27.782-24.816a23.675 23.675 0 0 0 5.644 7.768 14.783 14.783 0 0 0 9.484 3.9 84.841 84.841 0 0 0 -.579 20.547zm4.884-33.162-.018-.013c-.046.064-.116.166-.2.3a5.253 5.253 0 0 1 -3.573 2.333 4.764 4.764 0 0 1 -3.4-1.431c-2.92-2.558-4.958-7.566-5.318-13.071-.563-8.6 3.109-15.306 6.767-15.55.072 0 .144-.007.216-.007a4.947 4.947 0 0 1 3.186 1.438c2.92 2.558 4.958 7.567 5.318 13.071.353 5.474-1.004 10.168-2.978 12.93zm-2.691-37.12a253.5 253.5 0 0 0 -13.898-24.905 15.216 15.216 0 0 1 -1.43-13.059 14.823 14.823 0 0 1 8.978-9.117 49.936 49.936 0 0 1 12.781-2.916c.022 0 .044 0 .065-.006a35.751 35.751 0 0 1 11.852.918c5.14 1.312 7.015 3.676 7.868 5.618q.021.052.045.1c.107.254.2.5.278.736 3.546 10.615-8.582 32.4-19.038 46.76-.189-.18-.376-.363-.57-.534a15.47 15.47 0 0 0 -6.929-3.595zm15.643 23.54a35.9 35.9 0 0 0 -.847-5.738 81.861 81.861 0 0 0 29.332-6.337 15.238 15.238 0 0 1 13.141.763 14.752 14.752 0 0 1 7.449 10.338c1.68 9.342.944 17.644-2.19 24.676-2.276 5.109-5.492 8.041-9.831 8.962-12.046 2.556-30.484-9.9-39.577-17.316a32.5 32.5 0 0 0 2.523-15.348zm145.246 89.774a28.238 28.238 0 0 1 -14.733 11.471c-36.008 12.182-70.427 7.665-102.289-13.423a151.476 151.476 0 0 1 -36.482-34.309 28 28 0 0 0 .39-7.558c-.8-10.176.091-17.015 1.121-21.217a131.188 131.188 0 0 0 11.539 8.054c11 6.79 20.678 10.208 28.872 10.208a26.286 26.286 0 0 0 5.457-.551c7.483-1.586 13.327-6.662 16.9-14.677 3.965-8.9 4.94-19.164 2.9-30.517a24.711 24.711 0 0 0 -12.467-17.327 25.2 25.2 0 0 0 -21.729-1.268 73.965 73.965 0 0 1 -23.113 5.488 151.891 151.891 0 0 0 14.3-24.489c35.668-4.346 42.053 5.945 52.443 22.726 9.125 14.737 20.482 33.078 54.214 46.966a56.055 56.055 0 0 0 21.437 4.473 49.9 49.9 0 0 0 16.609-2.875c-.236 12.432-2.396 38.51-15.369 58.825zm80.532-174.9c-3.87 14.154-25.121 85.713-63.423 104.529-11.562 5.68-23.333 5.912-35.983.7-30.741-12.657-40.717-28.768-49.519-42.983-10.313-16.658-19.313-31.183-57.085-27.916.184-.656.352-1.309.51-1.96a67.323 67.323 0 0 0 10.881.851c32.936 0 69.336-20.895 71.117-21.93a5 5 0 1 0 -5.023-8.646c-.455.264-44.068 25.311-75.772 19.791a26.007 26.007 0 0 0 -.189-2.615c53.734-14.692 90.589-60.239 92.177-62.228a5 5 0 0 0 -7.816-6.239c-.371.465-36.846 45.554-88.074 59.1a18.5 18.5 0 0 0 -2.883-3 133.464 133.464 0 0 0 41.444-70.89c4.354-19.436 22.823-34.418 45.958-37.281 13.305-1.648 34.333.005 58.922 17.23 23.966 16.789 45.7 44.323 64.6 81.838a2.3 2.3 0 0 1 .158 1.647z" fill="url(#linear-gradient)"></path></svg>